<svg width="28" height="28" viewBox="0 0 28 28" fill="none" xmlns="http://www.w3.org/2000/svg">
<mask id="mask0_8_39" style="mask-type:luminance" maskUnits="userSpaceOnUse" x="0" y="0" width="28" height="28">
<path d="M27.0455 11.4546H14V16.8636H21.5091C20.8091 20.3 17.8818 22.2727 14 22.2727C9.41819 22.2727 5.72728 18.5818 5.72728 14C5.72728 9.41819 9.41819 5.72728 14 5.72728C15.9727 5.72728 17.7546 6.42728 19.1546 7.57273L23.2273 3.5C20.7455 1.33636 17.5637 0 14 0C6.23637 0 0 6.23637 0 14C0 21.7637 6.23637 28 14 28C21 28 27.3637 22.9091 27.3637 14C27.3637 13.1727 27.2364 12.2818 27.0455 11.4546Z" fill="white"/>
</mask>
<g mask="url(#mask0_8_39)">
<path d="M-1.27277 22.2728V5.72729L9.54542 14L-1.27277 22.2728Z" fill="#FBBC05"/>
</g>
<mask id="mask1_8_39" style="mask-type:luminance" maskUnits="userSpaceOnUse" x="0" y="0" width="28" height="28">
<path d="M27.0455 11.4546H14V16.8636H21.5091C20.8091 20.3 17.8818 22.2727 14 22.2727C9.41819 22.2727 5.72728 18.5818 5.72728 14C5.72728 9.41819 9.41819 5.72728 14 5.72728C15.9727 5.72728 17.7546 6.42728 19.1546 7.57273L23.2273 3.5C20.7455 1.33636 17.5637 0 14 0C6.23637 0 0 6.23637 0 14C0 21.7637 6.23637 28 14 28C21 28 27.3637 22.9091 27.3637 14C27.3637 13.1727 27.2364 12.2818 27.0455 11.4546Z" fill="white"/>
</mask>
<g mask="url(#mask1_8_39)">
<path d="M-1.27277 5.72729L9.54542 14L14 10.1182L29.2727 7.63638V-1.27272H-1.27277V5.72729Z" fill="#EA4335"/>
</g>
<mask id="mask2_8_39" style="mask-type:luminance" maskUnits="userSpaceOnUse" x="0" y="0" width="28" height="28">
<path d="M27.0455 11.4546H14V16.8636H21.5091C20.8091 20.3 17.8818 22.2727 14 22.2727C9.41819 22.2727 5.72728 18.5818 5.72728 14C5.72728 9.41819 9.41819 5.72728 14 5.72728C15.9727 5.72728 17.7546 6.42728 19.1546 7.57273L23.2273 3.5C20.7455 1.33636 17.5637 0 14 0C6.23637 0 0 6.23637 0 14C0 21.7637 6.23637 28 14 28C21 28 27.3637 22.9091 27.3637 14C27.3637 13.1727 27.2364 12.2818 27.0455 11.4546Z" fill="white"/>
</mask>
<g mask="url(#mask2_8_39)">
<path d="M-1.27277 22.2728L17.8182 7.63638L22.8454 8.27274L29.2727 -1.27272V29.2728H-1.27277V22.2728Z" fill="#34A853"/>
</g>
<mask id="mask3_8_39" style="mask-type:luminance" maskUnits="userSpaceOnUse" x="0" y="0" width="28" height="28">
<path d="M27.0455 11.4546H14V16.8636H21.5091C20.8091 20.3 17.8818 22.2727 14 22.2727C9.41819 22.2727 5.72728 18.5818 5.72728 14C5.72728 9.41819 9.41819 5.72728 14 5.72728C15.9727 5.72728 17.7546 6.42728 19.1546 7.57273L23.2273 3.5C20.7455 1.33636 17.5637 0 14 0C6.23637 0 0 6.23637 0 14C0 21.7637 6.23637 28 14 28C21 28 27.3637 22.9091 27.3637 14C27.3637 13.1727 27.2364 12.2818 27.0455 11.4546Z" fill="white"/>
</mask>
<g mask="url(#mask3_8_39)">
<path d="M29.2727 29.2728L9.54546 14L7 12.0909L29.2727 5.72729V29.2728Z" fill="#4285F4"/>
</g>
</svg>
